<svg width="141" height="14" viewBox="0 0 141 14" fill="none" xmlns="http://www.w3.org/2000/svg">
<path d="M0.744141 5.36523C0.744141 4.71289 0.867188 4.10547 1.11328 3.54297C1.35938 2.97656 1.71484 2.48633 2.17969 2.07227C2.64844 1.6543 3.21875 1.32617 3.89062 1.08789C4.56641 0.849609 5.33008 0.730469 6.18164 0.730469C6.92773 0.730469 7.61133 0.806641 8.23242 0.958984C8.85742 1.10742 9.4375 1.33594 9.97266 1.64453L9.11719 3.05078C8.95703 2.94531 8.77148 2.85156 8.56055 2.76953C8.35352 2.6875 8.13086 2.61914 7.89258 2.56445C7.6582 2.50586 7.41406 2.46094 7.16016 2.42969C6.91016 2.39844 6.66211 2.38281 6.41602 2.38281C5.82227 2.38281 5.29297 2.45703 4.82812 2.60547C4.36328 2.75 3.9707 2.95508 3.65039 3.2207C3.33398 3.48242 3.0918 3.79688 2.92383 4.16406C2.75977 4.52734 2.67773 4.92773 2.67773 5.36523C2.67773 5.81836 2.76367 6.23438 2.93555 6.61328C3.10742 6.99219 3.35547 7.32031 3.67969 7.59766C4.00781 7.87109 4.40625 8.08594 4.875 8.24219C5.34766 8.39453 5.88086 8.4707 6.47461 8.4707C6.74414 8.4707 7.01172 8.45117 7.27734 8.41211C7.54297 8.37305 7.79883 8.32031 8.04492 8.25391C8.29492 8.18359 8.53516 8.10156 8.76562 8.00781C8.99609 7.91016 9.21094 7.80469 9.41016 7.69141L10.2656 9.09766C9.76562 9.41797 9.1875 9.66992 8.53125 9.85352C7.875 10.0332 7.17773 10.123 6.43945 10.123C5.49805 10.123 4.67188 10.002 3.96094 9.75977C3.25 9.51367 2.65625 9.17773 2.17969 8.75195C1.70312 8.32227 1.34375 7.81836 1.10156 7.24023C0.863281 6.6582 0.744141 6.0332 0.744141 5.36523ZM12.0996 0.285156H13.834V3.61328C14.1973 3.41406 14.6016 3.25586 15.0469 3.13867C15.4961 3.02148 15.9668 2.96289 16.459 2.96289C17.0293 2.96289 17.541 3.04688 17.9941 3.21484C18.4512 3.38281 18.8379 3.625 19.1543 3.94141C19.4707 4.25391 19.7129 4.63477 19.8809 5.08398C20.0527 5.5332 20.1387 6.03906 20.1387 6.60156V10H18.4102V6.67188C18.4102 6.34375 18.3574 6.04492 18.252 5.77539C18.1465 5.50195 17.9922 5.26758 17.7891 5.07227C17.5859 4.87695 17.3379 4.72656 17.0449 4.62109C16.7559 4.51172 16.4277 4.45703 16.0605 4.45703C15.6191 4.45703 15.209 4.52734 14.8301 4.66797C14.4512 4.80859 14.1191 4.98633 13.834 5.20117V10H12.0996V0.285156ZM21.7559 7.82031C21.7559 7.48828 21.8281 7.18555 21.9727 6.91211C22.1172 6.63867 22.334 6.4043 22.623 6.20898C22.9121 6.00977 23.2715 5.85742 23.7012 5.75195C24.1348 5.64258 24.6387 5.58789 25.2129 5.58789C25.6387 5.58789 26.0859 5.61914 26.5547 5.68164C27.0273 5.74414 27.5137 5.83984 28.0137 5.96875C27.9941 5.75 27.9277 5.54883 27.8145 5.36523C27.7012 5.17773 27.543 5.01758 27.3398 4.88477C27.1406 4.74805 26.8984 4.64258 26.6133 4.56836C26.332 4.49414 26.0117 4.45703 25.6523 4.45703C25.457 4.45703 25.2422 4.46875 25.0078 4.49219C24.7734 4.51562 24.5312 4.55078 24.2812 4.59766C24.0312 4.64453 23.7832 4.70312 23.5371 4.77344C23.2949 4.84375 23.0684 4.92773 22.8574 5.02539L22.3301 3.60156C22.5918 3.50781 22.8711 3.42188 23.168 3.34375C23.4688 3.26562 23.7754 3.19922 24.0879 3.14453C24.4004 3.08594 24.7129 3.04102 25.0254 3.00977C25.3379 2.97852 25.6406 2.96289 25.9336 2.96289C27.2266 2.96289 28.1875 3.29297 28.8164 3.95312C29.4453 4.61328 29.7598 5.625 29.7598 6.98828V10H28.0254V9.34961C27.8457 9.45508 27.6484 9.55469 27.4336 9.64844C27.2227 9.74219 26.9922 9.82422 26.7422 9.89453C26.4922 9.96484 26.2227 10.0195 25.9336 10.0586C25.6484 10.1016 25.3457 10.123 25.0254 10.123C24.4863 10.123 24.0117 10.0645 23.6016 9.94727C23.1953 9.83008 22.8555 9.66797 22.582 9.46094C22.3086 9.25391 22.1016 9.01172 21.9609 8.73438C21.8242 8.45312 21.7559 8.14844 21.7559 7.82031ZM23.584 7.76172C23.584 7.875 23.6133 7.98438 23.6719 8.08984C23.7305 8.19141 23.8242 8.2832 23.9531 8.36523C24.082 8.44336 24.2461 8.50781 24.4453 8.55859C24.6484 8.60547 24.8926 8.62891 25.1777 8.62891C25.4824 8.62891 25.7773 8.60156 26.0625 8.54688C26.3477 8.49219 26.6133 8.41992 26.8594 8.33008C27.1055 8.24023 27.3281 8.13672 27.5273 8.01953C27.7266 7.90234 27.8926 7.78125 28.0254 7.65625V7.35156C27.7598 7.27734 27.4961 7.21484 27.2344 7.16406C26.9766 7.11328 26.7285 7.07422 26.4902 7.04688C26.2559 7.01562 26.0332 6.99414 25.8223 6.98242C25.6152 6.9707 25.4336 6.96484 25.2773 6.96484C24.9531 6.96484 24.6836 6.98633 24.4688 7.0293C24.2539 7.07227 24.0801 7.13086 23.9473 7.20508C23.8145 7.27539 23.7207 7.35938 23.666 7.45703C23.6113 7.55469 23.584 7.65625 23.584 7.76172ZM33.0996 4.38672H31.4297V3.08594H33.0996V0.935547H34.834V3.08594H36.5039V4.38672H34.834V10H33.0996V4.38672ZM41.0625 0.841797H43.0898L45.5742 6.75391L46.1484 8.18359L46.5996 6.75391L47.5137 4.59766L45.8672 0.841797H47.7773L48.4512 2.62891L49.0781 0.841797H50.9883L49.3418 4.59766L50.2734 6.80078L50.8359 8.18359L51.2695 6.77734L53.7656 0.841797H55.793L51.75 10H49.9102L49.0957 8.18359L48.4336 6.41992L47.7715 8.18359L46.9453 10H45.1055L41.0625 0.841797ZM57.9082 2.14258C57.7363 2.14258 57.5801 2.11914 57.4395 2.07227C57.3027 2.02148 57.1855 1.95508 57.0879 1.87305C56.9902 1.78711 56.9141 1.68945 56.8594 1.58008C56.8086 1.4668 56.7832 1.34766 56.7832 1.22266C56.7832 1.09375 56.8086 0.974609 56.8594 0.865234C56.9141 0.751953 56.9902 0.654297 57.0879 0.572266C57.1855 0.490234 57.3027 0.425781 57.4395 0.378906C57.5801 0.328125 57.7363 0.302734 57.9082 0.302734C58.084 0.302734 58.2402 0.328125 58.377 0.378906C58.5176 0.425781 58.6367 0.490234 58.7344 0.572266C58.832 0.654297 58.9062 0.751953 58.957 0.865234C59.0117 0.974609 59.0391 1.09375 59.0391 1.22266C59.0391 1.34766 59.0117 1.4668 58.957 1.58008C58.9062 1.68945 58.832 1.78711 58.7344 1.87305C58.6367 1.95508 58.5176 2.02148 58.377 2.07227C58.2402 2.11914 58.084 2.14258 57.9082 2.14258ZM57.041 3.08594H58.7754V10H57.041V3.08594ZM62.0449 4.38672H60.375V3.08594H62.0449V0.935547H63.7793V3.08594H65.4492V4.38672H63.7793V10H62.0449V4.38672ZM66.9902 0.285156H68.7246V3.61328C69.0879 3.41406 69.4922 3.25586 69.9375 3.13867C70.3867 3.02148 70.8574 2.96289 71.3496 2.96289C71.9199 2.96289 72.4316 3.04688 72.8848 3.21484C73.3418 3.38281 73.7285 3.625 74.0449 3.94141C74.3613 4.25391 74.6035 4.63477 74.7715 5.08398C74.9434 5.5332 75.0293 6.03906 75.0293 6.60156V10H73.3008V6.67188C73.3008 6.34375 73.248 6.04492 73.1426 5.77539C73.0371 5.50195 72.8828 5.26758 72.6797 5.07227C72.4766 4.87695 72.2285 4.72656 71.9355 4.62109C71.6465 4.51172 71.3184 4.45703 70.9512 4.45703C70.5098 4.45703 70.0996 4.52734 69.7207 4.66797C69.3418 4.80859 69.0098 4.98633 68.7246 5.20117V10H66.9902V0.285156ZM84.2988 0.841797H86.2676L90.6973 10H88.7461L88.0137 8.45898H82.6641L81.9551 10H79.998L84.2988 0.841797ZM87.2812 6.92969L85.3008 2.76953L83.373 6.92969H87.2812ZM91.9043 3.08594H93.6387V3.67188C94.0996 3.41016 94.5391 3.22656 94.957 3.12109C95.3789 3.01562 95.791 2.96289 96.1934 2.96289C96.7207 2.96289 97.209 3.04102 97.6582 3.19727C98.1074 3.34961 98.4961 3.57812 98.8242 3.88281C99.1523 4.1875 99.4082 4.56836 99.5918 5.02539C99.7793 5.47852 99.873 6.00391 99.873 6.60156V10H98.1445V6.88281C98.1445 6.50391 98.0898 6.16602 97.9805 5.86914C97.875 5.56836 97.7207 5.31641 97.5176 5.11328C97.3184 4.90625 97.0742 4.75 96.7852 4.64453C96.5 4.53516 96.1797 4.48047 95.8242 4.48047C95.6367 4.48047 95.4434 4.5 95.2441 4.53906C95.0488 4.57812 94.8555 4.63477 94.6641 4.70898C94.4766 4.7793 94.2949 4.86914 94.1191 4.97852C93.9434 5.08398 93.7832 5.20508 93.6387 5.3418V10H91.9043V3.08594ZM102.832 10.8672C103.012 10.9844 103.207 11.0879 103.418 11.1777C103.629 11.2676 103.848 11.3418 104.074 11.4004C104.305 11.459 104.539 11.502 104.777 11.5293C105.016 11.5605 105.252 11.5762 105.486 11.5762C106.283 11.5762 106.896 11.4043 107.326 11.0605C107.76 10.7207 107.977 10.209 107.977 9.52539V9.29102C107.824 9.39648 107.652 9.49414 107.461 9.58398C107.273 9.66992 107.07 9.74414 106.852 9.80664C106.637 9.86914 106.408 9.91797 106.166 9.95312C105.928 9.98438 105.686 10 105.439 10C104.912 10 104.439 9.92383 104.021 9.77148C103.607 9.61523 103.256 9.38867 102.967 9.0918C102.682 8.79102 102.463 8.42188 102.311 7.98438C102.158 7.54688 102.082 7.04688 102.082 6.48438V3.08594H103.811V6.00391C103.811 6.83984 103.969 7.45703 104.285 7.85547C104.605 8.25 105.109 8.44727 105.797 8.44727C106.281 8.44727 106.709 8.36328 107.08 8.19531C107.455 8.02344 107.754 7.80469 107.977 7.53906V3.08594H109.711V9.20898C109.711 9.86914 109.617 10.4414 109.43 10.9258C109.242 11.4141 108.969 11.8184 108.609 12.1387C108.254 12.459 107.816 12.6973 107.297 12.8535C106.777 13.0137 106.188 13.0938 105.527 13.0938C104.883 13.0938 104.281 13.0254 103.723 12.8887C103.164 12.752 102.652 12.5664 102.188 12.332L102.832 10.8672ZM111.539 6.54297C111.539 6.04688 111.639 5.58203 111.838 5.14844C112.041 4.71484 112.328 4.33594 112.699 4.01172C113.074 3.6875 113.525 3.43164 114.053 3.24414C114.584 3.05664 115.18 2.96289 115.84 2.96289C116.5 2.96289 117.094 3.05664 117.621 3.24414C118.152 3.43164 118.604 3.6875 118.975 4.01172C119.35 4.33594 119.637 4.71484 119.836 5.14844C120.039 5.58203 120.141 6.04688 120.141 6.54297C120.141 7.03906 120.039 7.50391 119.836 7.9375C119.637 8.37109 119.35 8.75 118.975 9.07422C118.604 9.39844 118.152 9.6543 117.621 9.8418C117.094 10.0293 116.5 10.123 115.84 10.123C115.18 10.123 114.584 10.0293 114.053 9.8418C113.525 9.6543 113.074 9.39844 112.699 9.07422C112.328 8.75 112.041 8.37109 111.838 7.9375C111.639 7.50391 111.539 7.03906 111.539 6.54297ZM113.361 6.54297C113.361 6.82031 113.416 7.08398 113.525 7.33398C113.639 7.58008 113.801 7.79883 114.012 7.99023C114.227 8.17773 114.486 8.32812 114.791 8.44141C115.1 8.55078 115.449 8.60547 115.84 8.60547C116.23 8.60547 116.578 8.55078 116.883 8.44141C117.191 8.32812 117.451 8.17773 117.662 7.99023C117.877 7.79883 118.039 7.58008 118.148 7.33398C118.262 7.08398 118.318 6.82031 118.318 6.54297C118.318 6.26562 118.262 6.00195 118.148 5.75195C118.039 5.50195 117.877 5.2832 117.662 5.0957C117.451 4.9043 117.191 4.75391 116.883 4.64453C116.578 4.53125 116.23 4.47461 115.84 4.47461C115.449 4.47461 115.1 4.53125 114.791 4.64453C114.486 4.75391 114.227 4.9043 114.012 5.0957C113.801 5.2832 113.639 5.50195 113.525 5.75195C113.416 6.00195 113.361 6.26562 113.361 6.54297ZM121.893 3.08594H123.627V3.67188C124.088 3.41016 124.527 3.22656 124.945 3.12109C125.367 3.01562 125.779 2.96289 126.182 2.96289C126.709 2.96289 127.197 3.04102 127.646 3.19727C128.096 3.34961 128.484 3.57812 128.812 3.88281C129.141 4.1875 129.396 4.56836 129.58 5.02539C129.768 5.47852 129.861 6.00391 129.861 6.60156V10H128.133V6.88281C128.133 6.50391 128.078 6.16602 127.969 5.86914C127.863 5.56836 127.709 5.31641 127.506 5.11328C127.307 4.90625 127.062 4.75 126.773 4.64453C126.488 4.53516 126.168 4.48047 125.812 4.48047C125.625 4.48047 125.432 4.5 125.232 4.53906C125.037 4.57812 124.844 4.63477 124.652 4.70898C124.465 4.7793 124.283 4.86914 124.107 4.97852C123.932 5.08398 123.771 5.20508 123.627 5.3418V10H121.893V3.08594ZM131.666 6.51953C131.666 6.05078 131.762 5.60352 131.953 5.17773C132.145 4.74805 132.42 4.36914 132.779 4.04102C133.139 3.71289 133.578 3.45117 134.098 3.25586C134.621 3.06055 135.215 2.96289 135.879 2.96289C136.539 2.96289 137.133 3.0625 137.66 3.26172C138.191 3.45703 138.641 3.72656 139.008 4.07031C139.379 4.41406 139.662 4.81836 139.857 5.2832C140.057 5.74805 140.156 6.24609 140.156 6.77734C140.156 6.84375 140.154 6.91602 140.15 6.99414C140.15 7.06836 140.146 7.13672 140.139 7.19922H133.6C133.674 7.40625 133.793 7.5957 133.957 7.76758C134.125 7.93945 134.334 8.08789 134.584 8.21289C134.834 8.33789 135.123 8.43555 135.451 8.50586C135.779 8.57227 136.143 8.60547 136.541 8.60547C136.939 8.60547 137.336 8.56445 137.73 8.48242C138.125 8.39648 138.502 8.28906 138.861 8.16016L139.447 9.48438C139.221 9.58984 138.99 9.68359 138.756 9.76562C138.525 9.84375 138.283 9.91016 138.029 9.96484C137.779 10.0156 137.516 10.0547 137.238 10.082C136.965 10.1094 136.676 10.123 136.371 10.123C135.594 10.123 134.912 10.0293 134.326 9.8418C133.74 9.6543 133.25 9.39844 132.855 9.07422C132.461 8.75 132.164 8.36914 131.965 7.93164C131.766 7.49414 131.666 7.02344 131.666 6.51953ZM138.316 5.8457C138.254 5.6543 138.156 5.47656 138.023 5.3125C137.895 5.14453 137.732 5 137.537 4.87891C137.342 4.75391 137.115 4.65625 136.857 4.58594C136.6 4.51562 136.316 4.48047 136.008 4.48047C135.68 4.48047 135.381 4.51758 135.111 4.5918C134.842 4.66602 134.605 4.76562 134.402 4.89062C134.199 5.01562 134.029 5.16016 133.893 5.32422C133.76 5.48828 133.662 5.66211 133.6 5.8457H138.316Z" fill="black"/>
</svg>
